<svg xmlns="http://www.w3.org/2000/svg" xmlns:xlink="http://www.w3.org/1999/xlink" width="128" zoomAndPan="magnify" viewBox="0 0 96 95.999999" height="128" preserveAspectRatio="xMidYMid meet" version="1.0"><defs><clipPath id="f43ba874ad"><path d="M 75 50 L 88.417969 50 L 88.417969 56 L 75 56 Z M 75 50 " clip-rule="nonzero"/></clipPath><clipPath id="c30cfc08fe"><path d="M 7.417969 51 L 21 51 L 21 55 L 7.417969 55 Z M 7.417969 51 " clip-rule="nonzero"/></clipPath><clipPath id="23d81bf0ad"><path d="M 46 7.261719 L 50 7.261719 L 50 20 L 46 20 Z M 46 7.261719 " clip-rule="nonzero"/></clipPath><clipPath id="f75531c546"><path d="M 7.417969 40 L 21 40 L 21 47 L 7.417969 47 Z M 7.417969 40 " clip-rule="nonzero"/></clipPath><clipPath id="9dfa132712"><path d="M 75 41 L 88.417969 41 L 88.417969 45 L 75 45 Z M 75 41 " clip-rule="nonzero"/></clipPath></defs><rect x="-9.6" width="115.2" fill="#ffffff" y="-9.6" height="115.199999" fill-opacity="1"/><rect x="-9.6" width="115.2" fill="#141a46" y="-9.6" height="115.199999" fill-opacity="1"/><path fill="#fc624d" d="M 46.3125 76.363281 L 49.261719 76.363281 L 49.261719 88.894531 L 46.3125 88.894531 Z M 46.3125 76.363281 " fill-opacity="1" fill-rule="evenodd"/><path fill="#fc624d" d="M 70.359375 65.253906 L 79.789062 73.429688 L 77.382812 76.234375 L 67.953125 68.0625 Z M 70.359375 65.253906 " fill-opacity="1" fill-rule="evenodd"/><path fill="#fc624d" d="M 64.535156 70.988281 L 71.257812 81.542969 L 68.363281 83.40625 L 61.640625 72.855469 Z M 64.535156 70.988281 " fill-opacity="1" fill-rule="evenodd"/><path fill="#fc624d" d="M 57.328125 74.800781 L 60.808594 86.835938 L 57.742188 87.734375 L 54.261719 75.699219 Z M 57.328125 74.800781 " fill-opacity="1" fill-rule="evenodd"/><path fill="#fc624d" d="M 74.308594 58.128906 L 85.644531 63.347656 L 84.003906 66.941406 L 72.671875 61.71875 Z M 74.308594 58.128906 " fill-opacity="1" fill-rule="evenodd"/><g clip-path="url(#f43ba874ad)"><path fill="#fc624d" d="M 76 50.101562 L 88.398438 51.738281 L 87.855469 55.902344 L 75.457031 54.265625 Z M 76 50.101562 " fill-opacity="1" fill-rule="evenodd"/></g><path fill="#fc624d" d="M 27.402344 67.410156 L 17.984375 75.617188 L 16.539062 73.9375 L 25.953125 65.730469 Z M 27.402344 67.410156 " fill-opacity="1" fill-rule="evenodd"/><path fill="#fc624d" d="M 33.742188 72.511719 L 27.046875 83.078125 L 24.972656 81.753906 L 31.667969 71.183594 Z M 33.742188 72.511719 " fill-opacity="1" fill-rule="evenodd"/><path fill="#fc624d" d="M 41.179688 75.53125 L 37.765625 87.605469 L 35.164062 86.863281 L 38.578125 74.789062 Z M 41.179688 75.53125 " fill-opacity="1" fill-rule="evenodd"/><path fill="#fc624d" d="M 22.84375 60.726562 L 11.480469 66 L 10.65625 64.207031 L 22.019531 58.929688 Z M 22.84375 60.726562 " fill-opacity="1" fill-rule="evenodd"/><g clip-path="url(#c30cfc08fe)"><path fill="#fc624d" d="M 20.25 53.007812 L 7.902344 54.691406 L 7.667969 52.976562 L 20.019531 51.292969 Z M 20.25 53.007812 " fill-opacity="1" fill-rule="evenodd"/></g><g clip-path="url(#23d81bf0ad)"><path fill="#fc624d" d="M 46.691406 7.328125 L 49.636719 7.328125 L 49.636719 19.855469 L 46.691406 19.855469 Z M 46.691406 7.328125 " fill-opacity="1" fill-rule="evenodd"/></g><path fill="#fc624d" d="M 25.589844 30.964844 L 16.160156 22.789062 L 18.570312 19.984375 L 27.996094 28.160156 Z M 25.589844 30.964844 " fill-opacity="1" fill-rule="evenodd"/><path fill="#fc624d" d="M 31.414062 25.230469 L 24.691406 14.679688 L 27.589844 12.8125 L 34.3125 23.367188 Z M 31.414062 25.230469 " fill-opacity="1" fill-rule="evenodd"/><path fill="#fc624d" d="M 38.625 21.417969 L 35.144531 9.382812 L 38.210938 8.488281 L 41.691406 20.519531 Z M 38.625 21.417969 " fill-opacity="1" fill-rule="evenodd"/><path fill="#fc624d" d="M 21.640625 38.09375 L 10.308594 32.875 L 11.945312 29.28125 L 23.277344 34.5 Z M 21.640625 38.09375 " fill-opacity="1" fill-rule="evenodd"/><g clip-path="url(#f75531c546)"><path fill="#fc624d" d="M 19.953125 46.117188 L 7.554688 44.480469 L 8.097656 40.316406 L 20.496094 41.953125 Z M 19.953125 46.117188 " fill-opacity="1" fill-rule="evenodd"/></g><path fill="#fc624d" d="M 68.546875 28.808594 L 77.964844 20.601562 L 79.414062 22.28125 L 69.996094 30.488281 Z M 68.546875 28.808594 " fill-opacity="1" fill-rule="evenodd"/><path fill="#fc624d" d="M 62.210938 23.710938 L 68.90625 13.140625 L 70.976562 14.46875 L 64.28125 25.035156 Z M 62.210938 23.710938 " fill-opacity="1" fill-rule="evenodd"/><path fill="#fc624d" d="M 54.773438 20.6875 L 58.1875 8.613281 L 60.785156 9.355469 L 57.371094 21.429688 Z M 54.773438 20.6875 " fill-opacity="1" fill-rule="evenodd"/><path fill="#fc624d" d="M 73.109375 35.496094 L 84.472656 30.21875 L 85.296875 32.015625 L 73.933594 37.289062 Z M 73.109375 35.496094 " fill-opacity="1" fill-rule="evenodd"/><g clip-path="url(#9dfa132712)"><path fill="#fc624d" d="M 75.699219 43.214844 L 88.050781 41.53125 L 88.28125 43.242188 L 75.929688 44.925781 Z M 75.699219 43.214844 " fill-opacity="1" fill-rule="evenodd"/></g><path fill="#a4b0f1" d="M 48.648438 64.210938 L 48.664062 76.363281 L 46.941406 76.367188 L 46.929688 64.214844 Z M 48.648438 64.210938 " fill-opacity="1" fill-rule="evenodd"/><path fill="#a4b0f1" d="M 36.394531 59.289062 L 27.242188 67.226562 L 26.117188 65.914062 L 35.269531 57.980469 Z M 36.394531 59.289062 " fill-opacity="1" fill-rule="evenodd"/><path fill="#a4b0f1" d="M 39.925781 62.0625 L 33.429688 72.3125 L 31.980469 71.382812 L 38.472656 61.132812 Z M 39.925781 62.0625 " fill-opacity="1" fill-rule="evenodd"/><path fill="#a4b0f1" d="M 44.167969 63.753906 L 40.796875 75.449219 L 39.144531 74.96875 L 42.515625 63.273438 Z M 44.167969 63.753906 " fill-opacity="1" fill-rule="evenodd"/><path fill="#a4b0f1" d="M 33.707031 55.542969 L 22.789062 60.613281 L 22.070312 59.042969 L 32.984375 53.972656 Z M 33.707031 55.542969 " fill-opacity="1" fill-rule="evenodd"/><path fill="#a4b0f1" d="M 32.230469 51.375 L 20.253906 53.007812 L 20.019531 51.292969 L 32 49.660156 Z M 32.230469 51.375 " fill-opacity="1" fill-rule="evenodd"/><path fill="#a4b0f1" d="M 35.214844 38.296875 L 26.226562 30.136719 L 27.355469 28.832031 L 36.34375 36.992188 Z M 35.214844 38.296875 " fill-opacity="1" fill-rule="evenodd"/><path fill="#a4b0f1" d="M 38.3125 35.171875 L 32.046875 24.789062 L 33.707031 23.726562 L 39.972656 34.109375 Z M 38.3125 35.171875 " fill-opacity="1" fill-rule="evenodd"/><path fill="#a4b0f1" d="M 47.269531 19.835938 L 48.988281 19.835938 L 48.988281 32.011719 L 47.269531 32.011719 Z M 47.269531 19.835938 " fill-opacity="1" fill-rule="evenodd"/><path fill="#a4b0f1" d="M 42.773438 32.835938 L 39.355469 21.171875 L 41.007812 20.6875 L 44.425781 32.351562 Z M 42.773438 32.835938 " fill-opacity="1" fill-rule="evenodd"/><path fill="#a4b0f1" d="M 32.984375 42.351562 L 22.066406 37.105469 L 22.785156 35.535156 L 33.707031 40.78125 Z M 32.984375 42.351562 " fill-opacity="1" fill-rule="evenodd"/><path fill="#a4b0f1" d="M 31.984375 46.664062 L 20.007812 45.03125 L 20.238281 43.316406 L 32.214844 44.949219 Z M 31.984375 46.664062 " fill-opacity="1" fill-rule="evenodd"/><path fill="#a4b0f1" d="M 59.558594 36.929688 L 68.710938 28.996094 L 69.835938 30.304688 L 60.683594 38.242188 Z M 59.558594 36.929688 " fill-opacity="1" fill-rule="evenodd"/><path fill="#a4b0f1" d="M 56.027344 34.160156 L 62.523438 23.910156 L 63.972656 24.835938 L 57.480469 35.089844 Z M 56.027344 34.160156 " fill-opacity="1" fill-rule="evenodd"/><path fill="#a4b0f1" d="M 51.785156 32.464844 L 55.230469 20.789062 L 56.882812 21.269531 L 53.4375 32.945312 Z M 51.785156 32.464844 " fill-opacity="1" fill-rule="evenodd"/><path fill="#a4b0f1" d="M 62.246094 40.675781 L 73.160156 35.609375 L 73.882812 37.175781 L 62.96875 42.246094 Z M 62.246094 40.675781 " fill-opacity="1" fill-rule="evenodd"/><path fill="#a4b0f1" d="M 63.722656 44.847656 L 75.699219 43.214844 L 75.933594 44.929688 L 63.953125 46.5625 Z M 63.722656 44.847656 " fill-opacity="1" fill-rule="evenodd"/><path fill="#a4b0f1" d="M 60.738281 57.921875 L 69.847656 65.90625 L 68.71875 67.210938 L 59.609375 59.226562 Z M 60.738281 57.921875 " fill-opacity="1" fill-rule="evenodd"/><path fill="#a4b0f1" d="M 57.535156 61.113281 L 63.867188 71.472656 L 62.414062 72.402344 L 56.082031 62.042969 Z M 57.535156 61.113281 " fill-opacity="1" fill-rule="evenodd"/><path fill="#a4b0f1" d="M 53.480469 63.28125 L 56.628906 75.015625 L 54.976562 75.496094 L 51.828125 63.761719 Z M 53.480469 63.28125 " fill-opacity="1" fill-rule="evenodd"/><path fill="#a4b0f1" d="M 62.96875 53.867188 L 73.949219 58.96875 L 73.230469 60.539062 L 62.246094 55.4375 Z M 62.96875 53.867188 " fill-opacity="1" fill-rule="evenodd"/><path fill="#a4b0f1" d="M 63.96875 49.554688 L 75.945312 51.191406 L 75.714844 52.902344 L 63.738281 51.269531 Z M 63.96875 49.554688 " fill-opacity="1" fill-rule="evenodd"/></svg>