<svg xmlns="http://www.w3.org/2000/svg" xmlns:xlink="http://www.w3.org/1999/xlink" width="128" zoomAndPan="magnify" viewBox="0 0 96 95.999999" height="128" preserveAspectRatio="xMidYMid meet" version="1.0"><defs><clipPath id="c064f7341b"><path d="M 7.5 0 L 88.949219 0 C 93.089844 0 96.449219 3.359375 96.449219 7.5 L 96.449219 88.5 C 96.449219 92.640625 93.089844 96 88.949219 96 L 7.5 96 C 3.359375 96 0 92.640625 0 88.5 L 0 7.5 C 0 3.359375 3.359375 0 7.5 0 Z M 7.5 0 " clip-rule="nonzero"/></clipPath><clipPath id="95063623f3"><path d="M 1.949219 1.949219 L 94.050781 1.949219 L 94.050781 94.410156 L 1.949219 94.410156 Z M 1.949219 1.949219 " clip-rule="nonzero"/></clipPath><clipPath id="f2809b3d0f"><path d="M 9.449219 1.949219 L 86.550781 1.949219 C 90.691406 1.949219 94.050781 5.308594 94.050781 9.449219 L 94.050781 86.699219 C 94.050781 90.84375 90.691406 94.199219 86.550781 94.199219 L 9.449219 94.199219 C 5.308594 94.199219 1.949219 90.84375 1.949219 86.699219 L 1.949219 9.449219 C 1.949219 5.308594 5.308594 1.949219 9.449219 1.949219 Z M 9.449219 1.949219 " clip-rule="nonzero"/></clipPath><clipPath id="b462b3d83e"><path d="M 65 35 L 73.613281 35 L 73.613281 39 L 65 39 Z M 65 35 " clip-rule="nonzero"/></clipPath><clipPath id="d0a1b13f3d"><path d="M 22.613281 35 L 31 35 L 31 39 L 22.613281 39 Z M 22.613281 35 " clip-rule="nonzero"/></clipPath><clipPath id="c931073a62"><path d="M 47 8.605469 L 50 8.605469 L 50 17 L 47 17 Z M 47 8.605469 " clip-rule="nonzero"/></clipPath><clipPath id="dbe12d6c19"><path d="M 22.613281 29 L 31 29 L 31 33 L 22.613281 33 Z M 22.613281 29 " clip-rule="nonzero"/></clipPath><clipPath id="93f341a493"><path d="M 65 29 L 73.613281 29 L 73.613281 33 L 65 33 Z M 65 29 " clip-rule="nonzero"/></clipPath><clipPath id="5b200c34c3"><path d="M 56 69 L 73.613281 69 L 73.613281 87 L 56 87 Z M 56 69 " clip-rule="nonzero"/></clipPath><clipPath id="acc25fc42e"><path d="M 40 69 L 58 69 L 58 87.355469 L 40 87.355469 Z M 40 69 " clip-rule="nonzero"/></clipPath><clipPath id="d3f3f94ff1"><path d="M 22.613281 69 L 41 69 L 41 87.355469 L 22.613281 87.355469 Z M 22.613281 69 " clip-rule="nonzero"/></clipPath></defs><g clip-path="url(#c064f7341b)"><rect x="-9.6" width="115.2" fill="#ffffff" y="-9.6" height="115.199999" fill-opacity="1"/></g><g clip-path="url(#95063623f3)"><g clip-path="url(#f2809b3d0f)"><path fill="#141a46" d="M 1.949219 1.949219 L 94.050781 1.949219 L 94.050781 94.050781 L 1.949219 94.050781 Z M 1.949219 1.949219 " fill-opacity="1" fill-rule="nonzero"/></g></g><path fill="#fc624d" d="M 46.96875 51.582031 L 48.820312 51.582031 L 48.820312 59.371094 L 46.96875 59.371094 Z M 46.96875 51.582031 " fill-opacity="1" fill-rule="evenodd"/><path fill="#fc624d" d="M 62.078125 44.671875 L 68.003906 49.757812 L 66.492188 51.5 L 60.566406 46.417969 Z M 62.078125 44.671875 " fill-opacity="1" fill-rule="evenodd"/><path fill="#fc624d" d="M 58.421875 48.238281 L 62.644531 54.800781 L 60.824219 55.960938 L 56.601562 49.398438 Z M 58.421875 48.238281 " fill-opacity="1" fill-rule="evenodd"/><path fill="#fc624d" d="M 53.890625 50.609375 L 56.078125 58.09375 L 54.148438 58.652344 L 51.960938 51.167969 Z M 53.890625 50.609375 " fill-opacity="1" fill-rule="evenodd"/><path fill="#fc624d" d="M 64.5625 40.238281 L 71.683594 43.484375 L 70.65625 45.71875 L 63.53125 42.472656 Z M 64.5625 40.238281 " fill-opacity="1" fill-rule="evenodd"/><g clip-path="url(#b462b3d83e)"><path fill="#fc624d" d="M 65.625 35.25 L 73.414062 36.265625 L 73.074219 38.855469 L 65.28125 37.839844 Z M 65.625 35.25 " fill-opacity="1" fill-rule="evenodd"/></g><path fill="#fc624d" d="M 35.085938 46.011719 L 29.167969 51.117188 L 28.257812 50.070312 L 34.175781 44.96875 Z M 35.085938 46.011719 " fill-opacity="1" fill-rule="evenodd"/><path fill="#fc624d" d="M 39.070312 49.183594 L 34.863281 55.757812 L 33.558594 54.929688 L 37.765625 48.359375 Z M 39.070312 49.183594 " fill-opacity="1" fill-rule="evenodd"/><path fill="#fc624d" d="M 43.742188 51.0625 L 41.597656 58.574219 L 39.964844 58.109375 L 42.109375 50.601562 Z M 43.742188 51.0625 " fill-opacity="1" fill-rule="evenodd"/><path fill="#fc624d" d="M 32.21875 41.855469 L 25.078125 45.136719 L 24.558594 44.019531 L 31.699219 40.738281 Z M 32.21875 41.855469 " fill-opacity="1" fill-rule="evenodd"/><g clip-path="url(#d0a1b13f3d)"><path fill="#fc624d" d="M 30.59375 37.054688 L 22.832031 38.101562 L 22.6875 37.035156 L 30.445312 35.988281 Z M 30.59375 37.054688 " fill-opacity="1" fill-rule="evenodd"/></g><g clip-path="url(#c931073a62)"><path fill="#fc624d" d="M 47.203125 8.648438 L 49.058594 8.648438 L 49.058594 16.4375 L 47.203125 16.4375 Z M 47.203125 8.648438 " fill-opacity="1" fill-rule="evenodd"/></g><path fill="#fc624d" d="M 33.945312 23.347656 L 28.023438 18.261719 L 29.535156 16.519531 L 35.460938 21.601562 Z M 33.945312 23.347656 " fill-opacity="1" fill-rule="evenodd"/><path fill="#fc624d" d="M 37.605469 19.78125 L 33.382812 13.21875 L 35.203125 12.058594 L 39.425781 18.621094 Z M 37.605469 19.78125 " fill-opacity="1" fill-rule="evenodd"/><path fill="#fc624d" d="M 42.136719 17.410156 L 39.949219 9.925781 L 41.875 9.367188 L 44.066406 16.851562 Z M 42.136719 17.410156 " fill-opacity="1" fill-rule="evenodd"/><path fill="#fc624d" d="M 31.464844 27.78125 L 24.34375 24.535156 L 25.371094 22.300781 L 32.492188 25.546875 Z M 31.464844 27.78125 " fill-opacity="1" fill-rule="evenodd"/><g clip-path="url(#dbe12d6c19)"><path fill="#fc624d" d="M 30.402344 32.769531 L 22.613281 31.753906 L 22.953125 29.164062 L 30.746094 30.179688 Z M 30.402344 32.769531 " fill-opacity="1" fill-rule="evenodd"/></g><path fill="#fc624d" d="M 60.941406 22.007812 L 66.859375 16.902344 L 67.769531 17.949219 L 61.851562 23.050781 Z M 60.941406 22.007812 " fill-opacity="1" fill-rule="evenodd"/><path fill="#fc624d" d="M 56.957031 18.835938 L 61.164062 12.261719 L 62.46875 13.085938 L 58.261719 19.660156 Z M 56.957031 18.835938 " fill-opacity="1" fill-rule="evenodd"/><path fill="#fc624d" d="M 52.285156 16.957031 L 54.429688 9.445312 L 56.0625 9.910156 L 53.917969 17.417969 Z M 52.285156 16.957031 " fill-opacity="1" fill-rule="evenodd"/><path fill="#fc624d" d="M 63.804688 26.164062 L 70.945312 22.882812 L 71.464844 24 L 64.324219 27.28125 Z M 63.804688 26.164062 " fill-opacity="1" fill-rule="evenodd"/><g clip-path="url(#93f341a493)"><path fill="#fc624d" d="M 65.433594 30.964844 L 73.195312 29.917969 L 73.339844 30.984375 L 65.582031 32.03125 Z M 65.433594 30.964844 " fill-opacity="1" fill-rule="evenodd"/></g><path fill="#a4b0f1" d="M 48.4375 44.023438 L 48.445312 51.582031 L 47.363281 51.582031 L 47.355469 44.023438 Z M 48.4375 44.023438 " fill-opacity="1" fill-rule="evenodd"/><path fill="#a4b0f1" d="M 40.734375 40.960938 L 34.984375 45.898438 L 34.277344 45.082031 L 40.03125 40.148438 Z M 40.734375 40.960938 " fill-opacity="1" fill-rule="evenodd"/><path fill="#a4b0f1" d="M 42.953125 42.683594 L 38.875 49.058594 L 37.960938 48.484375 L 42.042969 42.109375 Z M 42.953125 42.683594 " fill-opacity="1" fill-rule="evenodd"/><path fill="#a4b0f1" d="M 45.621094 43.738281 L 43.503906 51.011719 L 42.464844 50.710938 L 44.582031 43.441406 Z M 45.621094 43.738281 " fill-opacity="1" fill-rule="evenodd"/><path fill="#a4b0f1" d="M 39.046875 38.632812 L 32.1875 41.785156 L 31.734375 40.808594 L 38.59375 37.65625 Z M 39.046875 38.632812 " fill-opacity="1" fill-rule="evenodd"/><path fill="#a4b0f1" d="M 38.121094 36.039062 L 30.59375 37.054688 L 30.445312 35.988281 L 37.972656 34.972656 Z M 38.121094 36.039062 " fill-opacity="1" fill-rule="evenodd"/><path fill="#a4b0f1" d="M 39.996094 27.90625 L 34.347656 22.832031 L 35.058594 22.019531 L 40.703125 27.097656 Z M 39.996094 27.90625 " fill-opacity="1" fill-rule="evenodd"/><path fill="#a4b0f1" d="M 41.941406 25.964844 L 38.003906 19.503906 L 39.046875 18.84375 L 42.984375 25.304688 Z M 41.941406 25.964844 " fill-opacity="1" fill-rule="evenodd"/><path fill="#a4b0f1" d="M 47.570312 16.425781 L 48.648438 16.425781 L 48.648438 24 L 47.570312 24 Z M 47.570312 16.425781 " fill-opacity="1" fill-rule="evenodd"/><path fill="#a4b0f1" d="M 44.746094 24.511719 L 42.597656 17.257812 L 43.636719 16.957031 L 45.78125 24.210938 Z M 44.746094 24.511719 " fill-opacity="1" fill-rule="evenodd"/><path fill="#a4b0f1" d="M 38.59375 30.429688 L 31.730469 27.164062 L 32.183594 26.1875 L 39.046875 29.453125 Z M 38.59375 30.429688 " fill-opacity="1" fill-rule="evenodd"/><path fill="#a4b0f1" d="M 37.964844 33.109375 L 30.4375 32.09375 L 30.582031 31.027344 L 38.109375 32.042969 Z M 37.964844 33.109375 " fill-opacity="1" fill-rule="evenodd"/><path fill="#a4b0f1" d="M 55.292969 27.058594 L 61.042969 22.121094 L 61.75 22.9375 L 56 27.871094 Z M 55.292969 27.058594 " fill-opacity="1" fill-rule="evenodd"/><path fill="#a4b0f1" d="M 53.074219 25.332031 L 57.152344 18.957031 L 58.066406 19.535156 L 53.984375 25.910156 Z M 53.074219 25.332031 " fill-opacity="1" fill-rule="evenodd"/><path fill="#a4b0f1" d="M 50.40625 24.28125 L 52.574219 17.019531 L 53.609375 17.316406 L 51.445312 24.578125 Z M 50.40625 24.28125 " fill-opacity="1" fill-rule="evenodd"/><path fill="#a4b0f1" d="M 56.980469 29.386719 L 63.839844 26.234375 L 64.292969 27.210938 L 57.433594 30.363281 Z M 56.980469 29.386719 " fill-opacity="1" fill-rule="evenodd"/><path fill="#a4b0f1" d="M 57.90625 31.980469 L 65.433594 30.964844 L 65.582031 32.03125 L 58.054688 33.046875 Z M 57.90625 31.980469 " fill-opacity="1" fill-rule="evenodd"/><path fill="#a4b0f1" d="M 56.035156 40.113281 L 61.757812 45.078125 L 61.050781 45.886719 L 55.324219 40.921875 Z M 56.035156 40.113281 " fill-opacity="1" fill-rule="evenodd"/><path fill="#a4b0f1" d="M 54.019531 42.097656 L 58 48.539062 L 57.085938 49.117188 L 53.109375 42.675781 Z M 54.019531 42.097656 " fill-opacity="1" fill-rule="evenodd"/><path fill="#a4b0f1" d="M 51.472656 43.445312 L 53.453125 50.742188 L 52.414062 51.039062 L 50.433594 43.742188 Z M 51.472656 43.445312 " fill-opacity="1" fill-rule="evenodd"/><path fill="#a4b0f1" d="M 57.433594 37.589844 L 64.335938 40.761719 L 63.882812 41.738281 L 56.980469 38.566406 Z M 57.433594 37.589844 " fill-opacity="1" fill-rule="evenodd"/><path fill="#a4b0f1" d="M 58.0625 34.910156 L 65.589844 35.925781 L 65.445312 36.992188 L 57.917969 35.972656 Z M 58.0625 34.910156 " fill-opacity="1" fill-rule="evenodd"/><g clip-path="url(#5b200c34c3)"><path fill="#f0f0f5" d="M 63.300781 69.433594 L 66.371094 69.433594 L 73.566406 86.984375 L 70.347656 86.984375 L 68.359375 82.078125 L 61.339844 82.078125 L 59.324219 86.984375 L 56.105469 86.984375 Z M 67.328125 79.273438 L 64.960938 73.488281 L 64.734375 73.488281 L 62.371094 79.273438 Z M 67.328125 79.273438 " fill-opacity="1" fill-rule="nonzero"/></g><g clip-path="url(#acc25fc42e)"><path fill="#f0f0f5" d="M 49.09375 87.285156 C 47.414062 87.285156 45.914062 86.890625 44.589844 86.109375 C 43.261719 85.324219 42.222656 84.238281 41.46875 82.851562 C 40.730469 81.46875 40.359375 79.925781 40.359375 78.222656 C 40.359375 76.519531 40.730469 74.976562 41.46875 73.589844 C 42.222656 72.203125 43.261719 71.121094 44.589844 70.335938 C 45.914062 69.550781 47.414062 69.160156 49.09375 69.160156 C 51.019531 69.160156 52.707031 69.675781 54.148438 70.710938 C 55.609375 71.730469 56.625 73.128906 57.195312 74.917969 L 54.324219 75.894531 C 53.921875 74.65625 53.261719 73.699219 52.339844 73.015625 C 51.414062 72.328125 50.332031 71.988281 49.09375 71.988281 C 48 71.988281 47.027344 72.261719 46.171875 72.8125 C 45.316406 73.347656 44.648438 74.089844 44.160156 75.042969 C 43.691406 75.976562 43.457031 77.035156 43.457031 78.222656 C 43.457031 79.40625 43.691406 80.476562 44.160156 81.425781 C 44.648438 82.359375 45.316406 83.101562 46.171875 83.652344 C 47.027344 84.1875 48 84.457031 49.09375 84.457031 C 50.332031 84.457031 51.414062 84.113281 52.339844 83.429688 C 53.261719 82.746094 53.921875 81.785156 54.324219 80.550781 L 57.195312 81.5 C 56.609375 83.304688 55.59375 84.722656 54.148438 85.757812 C 52.707031 86.773438 51.019531 87.285156 49.09375 87.285156 Z M 49.09375 87.285156 " fill-opacity="1" fill-rule="nonzero"/></g><g clip-path="url(#d3f3f94ff1)"><path fill="#f0f0f5" d="M 31.4375 87.285156 C 29.777344 87.285156 28.28125 86.890625 26.957031 86.109375 C 25.648438 85.324219 24.625 84.246094 23.886719 82.878906 C 23.148438 81.492188 22.78125 79.941406 22.78125 78.222656 C 22.78125 76.503906 23.148438 74.957031 23.886719 73.589844 C 24.625 72.203125 25.648438 71.121094 26.957031 70.335938 C 28.28125 69.550781 29.777344 69.160156 31.4375 69.160156 C 33.097656 69.160156 34.582031 69.550781 35.890625 70.335938 C 37.199219 71.121094 38.222656 72.203125 38.960938 73.589844 C 39.699219 74.957031 40.066406 76.503906 40.066406 78.222656 C 40.066406 79.941406 39.699219 81.492188 38.960938 82.878906 C 38.222656 84.246094 37.199219 85.324219 35.890625 86.109375 C 34.582031 86.890625 33.097656 87.285156 31.4375 87.285156 Z M 31.4375 84.355469 C 32.542969 84.355469 33.523438 84.097656 34.378906 83.578125 C 35.253906 83.046875 35.921875 82.320312 36.394531 81.402344 C 36.878906 80.464844 37.121094 79.40625 37.121094 78.222656 C 37.121094 77.035156 36.878906 75.984375 36.394531 75.066406 C 35.921875 74.132812 35.253906 73.40625 34.378906 72.890625 C 33.523438 72.355469 32.542969 72.085938 31.4375 72.085938 C 30.3125 72.085938 29.3125 72.355469 28.441406 72.890625 C 27.585938 73.40625 26.914062 74.132812 26.429688 75.066406 C 25.960938 75.984375 25.722656 77.035156 25.722656 78.222656 C 25.722656 79.40625 25.960938 80.464844 26.429688 81.402344 C 26.914062 82.320312 27.585938 83.046875 28.441406 83.578125 C 29.3125 84.097656 30.3125 84.355469 31.4375 84.355469 Z M 31.4375 84.355469 " fill-opacity="1" fill-rule="nonzero"/></g></svg>